{
  "accessors": [
    {
      "bufferView": 2,
      "componentType": 5126,
      "count": 65532,
      "max": [
        2.2087810039520264,
        3.068572998046875,
        2.0207459926605225
      ],
      "min": [
        -2.2087368965148926,
        -3.0979599952697754,
        -0.5836349725723267
      ],
      "type": "VEC3"
    },
    {
      "bufferView": 2,
      "byteOffset": 786384,
      "componentType": 5126,
      "count": 65532,
      "max": [
        0.999996542930603,
        0.9915028810501099,
        1.0
      ],
      "min": [
        -0.9998843669891357,
        -0.9998577833175659,
        -1.0
      ],
      "type": "VEC3"
    },
    {
      "bufferView": 3,
      "componentType": 5126,
      "count": 65532,
      "max": [
        0.9999953508377075,
        1.0,
        0.9999631643295288,
        1.0
      ],
      "min": [
        -1.0,
        -1.0,
        -1.0,
        -1.0
      ],
      "type": "VEC4"
    },
    {
      "bufferView": 1,
      "componentType": 5126,
      "count": 65532,
      "max": [
        0.9012470245361328,
        0.9451209902763367
      ],
      "min": [
        0.0,
        0.0
      ],
      "type": "VEC2"
    },
    {
      "bufferView": 0,
      "componentType": 5125,
      "count": 351441,
      "type": "SCALAR"
    },
    {
      "bufferView": 2,
      "byteOffset": 1572768,
      "componentType": 5126,
      "count": 65532,
      "max": [
        2.2108678817749023,
        3.137665033340454,
        2.0230650901794434
      ],
      "min": [
        -2.2108678817749023,
        -3.1185619831085205,
        -0.5830649733543396
      ],
      "type": "VEC3"
    },
    {
      "bufferView": 2,
      "byteOffset": 2359152,
      "componentType": 5126,
      "count": 65532,
      "max": [
        0.9999995231628418,
        0.9998588562011719,
        1.0
      ],
      "min": [
        -0.9999995231628418,
        -0.9998577833175659,
        -0.9999693632125854
      ],
      "type": "VEC3"
    },
    {
      "bufferView": 3,
      "byteOffset": 1048512,
      "componentType": 5126,
      "count": 65532,
      "max": [
        0.9999942183494568,
        1.0,
        1.0,
        1.0
      ],
      "min": [
        -1.0,
        -1.0,
        -0.9986625909805298,
        -1.0
      ],
      "type": "VEC4"
    },
    {
      "bufferView": 1,
      "byteOffset": 524256,
      "componentType": 5126,
      "count": 65532,
      "max": [
        0.9999629855155945,
        0.9451209902763367
      ],
      "min": [
        0.0040710000321269035,
        0.005483999848365784
      ],
      "type": "VEC2"
    },
    {
      "bufferView": 0,
      "byteOffset": 1405764,
      "componentType": 5125,
      "count": 352953,
      "type": "SCALAR"
    },
    {
      "bufferView": 2,
      "byteOffset": 3145536,
      "componentType": 5126,
      "count": 9084,
      "max": [
        2.204329013824463,
        3.1376500129699707,
        0.5696240067481995
      ],
      "min": [
        -2.177000045776367,
        -2.336867094039917,
        -0.5802649855613708
      ],
      "type": "VEC3"
    },
    {
      "bufferView": 2,
      "byteOffset": 3254544,
      "componentType": 5126,
      "count": 9084,
      "max": [
        0.9889262318611145,
        0.9998058676719666,
        0.9997816681861877
      ],
      "min": [
        -0.9837226271629333,
        -0.9932517409324646,
        -0.9999690055847168
      ],
      "type": "VEC3"
    },
    {
      "bufferView": 3,
      "byteOffset": 2097024,
      "componentType": 5126,
      "count": 9084,
      "max": [
        0.7383204698562622,
        1.0,
        0.9998819231987,
        1.0
      ],
      "min": [
        -0.9999552369117737,
        -1.0,
        -0.9999998807907104,
        1.0
      ],
      "type": "VEC4"
    },
    {
      "bufferView": 1,
      "byteOffset": 1048512,
      "componentType": 5126,
      "count": 9084,
      "max": [
        0.8700379729270935,
        0.9295799732208252
      ],
      "min": [
        0.006105000153183937,
        0.0060339998453855515
      ],
      "type": "VEC2"
    },
    {
      "bufferView": 0,
      "byteOffset": 2817576,
      "componentType": 5125,
      "count": 38070,
      "type": "SCALAR"
    },
    {
      "bufferView": 2,
      "byteOffset": 3363552,
      "componentType": 5126,
      "count": 8660,
      "max": [
        0.5585880279541016,
        -2.29223895072937,
        0.6077229976654053
      ],
      "min": [
        -0.5585880279541016,
        -2.74902606010437,
        -0.33183199167251587
      ],
      "type": "VEC3"
    },
    {
      "bufferView": 2,
      "byteOffset": 3467472,
      "componentType": 5126,
      "count": 8660,
      "max": [
        1.0,
        0.9966935515403748,
        0.9999695420265198
      ],
      "min": [
        -1.0,
        -0.9975845217704773,
        -0.9999687671661377
      ],
      "type": "VEC3"
    },
    {
      "bufferView": 1,
      "byteOffset": 1121184,
      "componentType": 5126,
      "count": 8660,
      "max": [
        1.9999669790267944,
        0.9999669790267944
      ],
      "min": [
        1.003898024559021,
        0.00355900009162724
      ],
      "type": "VEC2"
    },
    {
      "bufferView": 0,
      "byteOffset": 2969856,
      "componentType": 5125,
      "count": 32340,
      "type": "SCALAR"
    }
  ],
  "asset": {
    "extras": {
      "author": "aellis43 (https://sketchfab.com/aellis43)",
      "license": "CC-BY-4.0 (http://creativecommons.org/licenses/by/4.0/)",
      "source": "https://sketchfab.com/3d-models/space-shuttle-99e734dca5144c1981673d477935f067",
      "title": "Space Shuttle"
    },
    "generator": "Sketchfab-12.67.0",
    "version": "2.0"
  },
  "bufferViews": [
    {
      "buffer": 0,
      "byteLength": 3099216,
      "name": "floatBufferViews",
      "target": 34963
    },
    {
      "buffer": 0,
      "byteLength": 1190464,
      "byteOffset": 3099216,
      "byteStride": 8,
      "name": "floatBufferViews",
      "target": 34962
    },
    {
      "buffer": 0,
      "byteLength": 3571392,
      "byteOffset": 4289680,
      "byteStride": 12,
      "name": "floatBufferViews",
      "target": 34962
    },
    {
      "buffer": 0,
      "byteLength": 2242368,
      "byteOffset": 7861072,
      "byteStride": 16,
      "name": "floatBufferViews",
      "target": 34962
    }
  ],
  "buffers": [
    {
      "byteLength": 10103440,
      "uri": "scene.bin"
    }
  ],
  "images": [
    {
      "uri": "textures/Body_baseColor.jpeg"
    },
    {
      "uri": "textures/Body_normal.png"
    },
    {
      "uri": "textures/Engine_baseColor.jpeg"
    }
  ],
  "materials": [
    {
      "doubleSided": true,
      "name": "Body",
      "normalTexture": {
        "index": 1,
        "scale": 0.26
      },
      "pbrMetallicRoughness": {
        "baseColorTexture": {
          "index": 0
        },
        "metallicFactor": 0.0,
        "roughnessFactor": 0.6
      }
    },
    {
      "doubleSided": true,
      "name": "Engine",
      "pbrMetallicRoughness": {
        "baseColorTexture": {
          "index": 2
        },
        "metallicFactor": 0.0,
        "roughnessFactor": 0.6
      }
    }
  ],
  "meshes": [
    {
      "name": "Object_0",
      "primitives": [
        {
          "attributes": {
            "NORMAL": 1,
            "POSITION": 0,
            "TANGENT": 2,
            "TEXCOORD_0": 3
          },
          "indices": 4,
          "material": 0,
          "mode": 4
        }
      ]
    },
    {
      "name": "Object_1",
      "primitives": [
        {
          "attributes": {
            "NORMAL": 6,
            "POSITION": 5,
            "TANGENT": 7,
            "TEXCOORD_0": 8
          },
          "indices": 9,
          "material": 0,
          "mode": 4
        }
      ]
    },
    {
      "name": "Object_2",
      "primitives": [
        {
          "attributes": {
            "NORMAL": 11,
            "POSITION": 10,
            "TANGENT": 12,
            "TEXCOORD_0": 13
          },
          "indices": 14,
          "material": 0,
          "mode": 4
        }
      ]
    },
    {
      "name": "Object_3",
      "primitives": [
        {
          "attributes": {
            "NORMAL": 16,
            "POSITION": 15,
            "TEXCOORD_0": 17
          },
          "indices": 18,
          "material": 1,
          "mode": 4
        }
      ]
    }
  ],
  "nodes": [
    {
      "children": [
        1
      ],
      "matrix": [
        1.0,
        0.0,
        0.0,
        0.0,
        0.0,
        2.220446049250313e-16,
        -1.0,
        0.0,
        0.0,
        1.0,
        2.220446049250313e-16,
        0.0,
        0.0,
        0.0,
        0.0,
        1.0
      ],
      "name": "Sketchfab_model"
    },
    {
      "children": [
        2,
        3,
        4,
        5
      ],
      "name": "ShuttleSceneH.obj.cleaner"
    },
    {
      "mesh": 0,
      "name": "Object_2"
    },
    {
      "mesh": 1,
      "name": "Object_3"
    },
    {
      "mesh": 2,
      "name": "Object_4"
    },
    {
      "mesh": 3,
      "name": "Object_5"
    }
  ],
  "samplers": [
    {
      "magFilter": 9729,
      "minFilter": 9987,
      "wrapS": 10497,
      "wrapT": 10497
    }
  ],
  "scene": 0,
  "scenes": [
    {
      "name": "Sketchfab_Scene",
      "nodes": [
        0
      ]
    }
  ],
  "textures": [
    {
      "sampler": 0,
      "source": 0
    },
    {
      "sampler": 0,
      "source": 1
    },
    {
      "sampler": 0,
      "source": 2
    }
  ]
}
